<svg width="64" height="64" viewBox="0 0 64 64" fill="none" xmlns="http://www.w3.org/2000/svg">
<rect width="64" height="64" fill="#007ACC"/>
<path d="M38.2879 28C40.7897 28 42.4765 29.0422 43.3484 31.1266L51.3466 51.4399L51.6498 52.1113C52.0794 53.032 52.6227 53.4987 53.2798 53.5115H53.6588L53.9621 53.4923L54 57.8657C53.4819 57.9552 52.787 58 51.9152 58C50.5126 58 49.3628 57.6867 48.4657 57.0601C47.5812 56.4207 46.8736 55.3785 46.343 53.9335L43.102 44.9373L38.9134 57.6547H33L40.259 37.3798L38.8944 34.2148C38.6417 33.5754 38.3195 33.1279 37.9278 32.8721C37.5361 32.6164 37.0433 32.4885 36.4495 32.4885L35.3502 32.546L35.2365 28.422C36.1209 28.1407 37.1381 28 38.2879 28Z" fill="white"/>
</svg>
